<svg width="35" height="147" viewBox="0 0 35 147" fill="none" xmlns="http://www.w3.org/2000/svg">
<path d="M6.22635 143.947L6.22593 143.943L1.22206 119.188L11.0666 116.032L6.22635 143.947ZM11.3929 115.07L0.667747 118.508C0.473594 118.57 0.360471 118.778 0.40318 118.992L5.85372 145.961C5.89163 146.146 6.03705 146.289 6.20999 146.318C6.22697 146.322 6.24446 146.324 6.26248 146.325C6.38082 146.329 6.48948 146.279 6.56371 146.194C6.57663 146.18 6.58811 146.166 6.5972 146.15C6.61674 146.122 6.63242 146.091 6.64429 146.056C6.65151 146.035 6.65582 146.013 6.66066 145.989L6.67651 145.9L6.67702 145.898L7.21245 142.807L7.21205 142.804L7.21308 142.801L11.9333 115.583C11.9601 115.432 11.9066 115.274 11.7945 115.169C11.683 115.063 11.5292 115.027 11.3929 115.07Z" fill="#602A68"/>
<path d="M30.3052 121.512L29.7285 122.085C29.7261 122.088 29.7236 122.09 29.7211 122.093L7.43722 144.291L20.383 114.078L30.3052 121.512ZM20.1124 113.087C19.9953 113.118 19.9007 113.199 19.8527 113.315L5.96508 145.721C5.93855 145.784 5.92798 145.853 5.93303 145.92C5.93836 146.05 6.00073 146.178 6.10882 146.26C6.14146 146.286 6.1767 146.304 6.21202 146.318C6.3561 146.377 6.51944 146.347 6.6307 146.237L6.68188 146.185C6.68188 146.185 6.68189 146.185 6.68385 146.184L31.1593 121.804C31.204 121.761 31.2372 121.708 31.2578 121.648C31.2779 121.59 31.285 121.526 31.2789 121.461C31.2658 121.33 31.1989 121.211 31.097 121.135L20.4546 113.161C20.3547 113.084 20.2289 113.058 20.1124 113.087Z" fill="#602A68"/>
<path d="M7.21446 142.797L11.2333 119.635L17.01 119.942L7.21446 142.797ZM17.5589 119.164L17.3481 119.154L10.9337 118.81C10.7346 118.799 10.5628 118.94 10.5292 119.144L5.9197 145.712C5.90767 145.781 5.91314 145.852 5.93237 145.917C5.97074 146.052 6.07088 146.167 6.20491 146.217C6.32154 146.26 6.44411 146.247 6.54219 146.189C6.56144 146.177 6.58119 146.163 6.59857 146.146C6.64169 146.108 6.67621 146.061 6.70068 146.004L7.43606 144.289L7.43657 144.287L17.9344 119.788C17.939 119.78 17.9426 119.77 17.9457 119.761C17.9885 119.636 17.9736 119.496 17.9028 119.378C17.8267 119.251 17.6982 119.17 17.5589 119.164Z" fill="#602A68"/>
<path d="M30.0708 122.888L33.2934 125.015L10.8156 142.067L30.0708 122.888ZM29.7289 122.085C29.7264 122.087 29.7239 122.089 29.7214 122.092L7.43722 144.291L6.85734 144.869L6.28064 145.442L6.28012 145.444C6.12812 145.595 6.1188 145.854 6.26158 146.034C6.33634 146.126 6.43859 146.181 6.54265 146.193C6.55042 146.195 6.5587 146.195 6.56554 146.194C6.60446 146.197 6.64369 146.194 6.68188 146.185C6.68188 146.185 6.68189 146.185 6.68385 146.184C6.73084 146.173 6.77835 146.151 6.82086 146.119L34.1854 125.361C34.2502 125.313 34.2963 125.247 34.3226 125.17C34.3412 125.116 34.3496 125.058 34.3449 124.999C34.3364 124.855 34.261 124.721 34.1407 124.641L30.2164 122.05C30.0595 121.945 29.8608 121.962 29.7289 122.085Z" fill="#602A68"/>
<path d="M21.316 105.224C21.3042 105.259 21.2903 105.294 21.2726 105.326C20.6485 106.549 20.2716 107.2 20.2574 107.226C20.0408 107.599 19.5686 107.7 19.2024 107.455C18.8368 107.208 18.7172 106.705 18.9333 106.333C18.9374 106.327 19.3072 105.687 19.9101 104.506C20.1075 104.121 20.5715 103.991 20.9472 104.218C21.2917 104.425 21.4424 104.857 21.316 105.224Z" fill="#602A68"/>
<path d="M26.1308 89.2611C25.9159 89.9237 25.6932 90.5898 25.4673 91.246L25.4652 91.252C25.2439 91.8947 25.0147 92.5409 24.7838 93.1778C24.6391 93.5834 24.8347 94.0636 25.2324 94.2418C25.63 94.42 26.0742 94.2314 26.2233 93.8225C26.4573 93.1766 26.6901 92.5199 26.914 91.8698L26.916 91.8638C27.1451 91.1986 27.3714 90.522 27.5883 89.8534C27.7239 89.4353 27.5077 88.9669 27.1039 88.8016C26.7025 88.639 26.2648 88.8526 26.1308 89.2611ZM23.3026 97.0303C22.7785 98.3204 22.2339 99.5932 21.6824 100.813C21.5043 101.21 21.6713 101.7 22.0572 101.908C22.4412 102.116 22.8978 101.964 23.0774 101.568C23.6375 100.327 24.1898 99.0373 24.7206 97.7277C24.7267 97.7148 24.7319 97.6999 24.736 97.6879C24.8722 97.2924 24.6869 96.8354 24.3069 96.6493C23.9159 96.4568 23.4667 96.6261 23.3026 97.0303ZM28.4203 81.2691C28.0873 82.608 27.7253 83.9587 27.3447 85.2911C27.2232 85.7118 27.4561 86.1753 27.8612 86.3223C28.2556 86.4664 28.6698 86.2633 28.8059 85.8678C28.8101 85.8559 28.8152 85.8409 28.8184 85.8268C29.2047 84.4779 29.5719 83.1071 29.9091 81.751C30.0147 81.3236 29.7671 80.8692 29.3568 80.7372C28.9456 80.6031 28.5254 80.8431 28.4203 81.2691ZM31.0361 72.4936C30.6175 72.3907 30.2181 72.6619 30.1431 73.0972C29.9066 74.4602 29.642 75.8421 29.3544 77.2038C29.2623 77.6353 29.5263 78.0812 29.9402 78.1976C30.3222 78.3055 30.7014 78.0978 30.8293 77.7262C30.8402 77.6948 30.8495 77.6627 30.8565 77.6279C31.1484 76.249 31.4182 74.847 31.656 73.4658C31.733 73.0296 31.4538 72.5944 31.0361 72.4936ZM32.1032 64.1057C31.6805 64.0389 31.3029 64.3434 31.2618 64.7864C31.1293 66.1662 30.9685 67.57 30.7803 68.957C30.7218 69.3976 31.0139 69.8194 31.4353 69.9046C31.8018 69.9801 32.146 69.7678 32.2657 69.4203C32.2832 69.3693 32.2959 69.318 32.3033 69.2628C32.4938 67.8545 32.6569 66.4293 32.7917 65.0281C32.8328 64.5852 32.5259 64.1726 32.1032 64.1057ZM32.5112 55.6224C32.0873 55.5928 31.7378 55.9317 31.7303 56.3786C31.7096 57.7718 31.6593 59.1883 31.5804 60.591C31.5554 61.0356 31.8782 61.4361 32.3027 61.4831C32.6528 61.5242 32.9604 61.3117 33.0719 60.9882C33.0961 60.9177 33.1117 60.8436 33.1151 60.766C33.1948 59.3414 33.2457 57.8993 33.2678 56.4827C33.2762 56.0379 32.9366 55.6526 32.5112 55.6224ZM32.2144 47.0997C31.7912 47.1116 31.4722 47.4824 31.5032 47.9286C31.6005 49.3222 31.6694 50.7449 31.7064 52.1541C31.7183 52.6024 32.0734 52.972 32.4957 52.982C32.8226 52.9891 33.097 52.7814 33.2007 52.4803C33.2316 52.3904 33.2471 52.2922 33.2442 52.1896C33.2057 50.7557 33.1368 49.3089 33.038 47.8907C33.0056 47.4439 32.6371 47.0892 32.2144 47.0997ZM31.1749 38.6038C30.7557 38.657 30.4722 39.0602 30.5437 39.5047C30.7649 40.891 30.9577 42.3064 31.1172 43.7077C31.1681 44.1537 31.5511 44.4906 31.9728 44.459C32.2729 44.4375 32.5121 44.2354 32.6065 43.9613C32.6452 43.8489 32.6597 43.7246 32.6442 43.596C32.4828 42.1664 32.2856 40.725 32.0614 39.3135C31.99 38.8689 31.5935 38.5521 31.1749 38.6038ZM29.3707 30.2132C28.96 30.3095 28.7169 30.7402 28.8289 31.1779C29.1767 32.5443 29.4961 33.9399 29.7812 35.3242C29.8727 35.7636 30.2822 36.0619 30.6983 35.9885C30.9672 35.9416 31.1717 35.7488 31.2578 35.4986C31.3043 35.3638 31.3155 35.2105 31.2853 35.0567C30.9944 33.6458 30.6671 32.2247 30.315 30.8323C30.2024 30.3961 29.7808 30.1184 29.3707 30.2132ZM26.7997 22.011C26.4043 22.1499 26.2055 22.6064 26.3554 23.031C26.8275 24.3646 27.2768 25.7261 27.6862 27.0776C27.8174 27.5081 28.2516 27.7637 28.6553 27.6489C28.8926 27.5783 29.0655 27.3995 29.1429 27.1747C29.1976 27.0159 29.204 26.8331 29.1489 26.655C28.7302 25.2773 28.2766 23.8898 27.7932 22.5308C27.642 22.1056 27.198 21.8733 26.7997 22.011ZM23.4923 14.0738C23.1112 14.2532 22.9569 14.7303 23.145 15.1403C23.7384 16.4259 24.3069 17.7404 24.841 19.0488C25.0114 19.4668 25.4631 19.6766 25.8535 19.5184C26.0549 19.4359 26.2003 19.2694 26.2684 19.0716C26.3319 18.8874 26.3301 18.6753 26.2496 18.4743C25.7072 17.1417 25.126 15.8012 24.5237 14.493C24.3337 14.0838 23.8728 13.8959 23.4923 14.0738ZM19.4913 6.46962C19.1305 6.68685 19.0187 7.1804 19.2433 7.57164C19.9474 8.80138 20.633 10.061 21.2768 11.3114C21.4846 11.7126 21.9517 11.8775 22.3244 11.679C22.4938 11.588 22.6136 11.4381 22.6739 11.2628C22.7456 11.0546 22.7332 10.8105 22.6214 10.5944C21.9638 9.321 21.2675 8.03961 20.5501 6.78536C20.3271 6.39474 19.8522 6.25239 19.4913 6.46962Z" fill="#602A68"/>
<path d="M18.4024 3.80185C18.3498 3.95466 18.2517 4.08979 18.1115 4.18293C17.7616 4.41683 17.2833 4.2988 17.0425 3.91609C16.6551 3.30247 16.257 2.68602 15.8591 2.08341C15.6109 1.70783 15.6892 1.20518 16.0354 0.962814C16.3802 0.71983 16.8601 0.828254 17.1083 1.20383C17.5128 1.81614 17.9171 2.44379 18.3121 3.06923C18.4564 3.29741 18.4818 3.57115 18.4024 3.80185Z" fill="#602A68"/>
</svg>
